<?xml version="1.0" encoding="UTF-8"?>
<svg width="80px" height="80px" viewBox="0 0 80 80" version="1.1" xmlns="http://www.w3.org/2000/svg" xmlns:xlink="http://www.w3.org/1999/xlink">
    <!-- Generator: Sketch 64 (93537) - https://sketch.com -->
    <title>Artboard</title>
    <desc>Created with Sketch.</desc>
    <g id="Artboard" stroke="none" stroke-width="1" fill="none" fill-rule="evenodd">
        <circle id="Oval" stroke="#C8102E" cx="40" cy="40" r="39.5"></circle>
        <circle id="Oval" fill="#C8102E" cx="40" cy="40" r="36"></circle>
        <path d="M13.9216667,45 L13.9216667,41.85 L15.6766667,41.85 C16.2666667,41.85 16.8191667,41.7725 17.3341667,41.6175 C17.8491667,41.4625 18.2991667,41.23 18.6841667,40.92 C19.0691667,40.61 19.3716667,40.225 19.5916667,39.765 C19.8116667,39.305 19.9216667,38.77 19.9216667,38.16 L19.9216667,38.13 C19.9216667,37.59 19.8291667,37.0975 19.6441667,36.6525 C19.4591667,36.2075 19.1941667,35.825 18.8491667,35.505 C18.5041667,35.185 18.0841667,34.9375 17.5891667,34.7625 C17.0941667,34.5875 16.5316667,34.5 15.9016667,34.5 L11.6116667,34.5 L11.6116667,45 L13.9216667,45 Z M15.7516667,39.795 L13.9216667,39.795 L13.9216667,36.585 L15.7066667,36.585 C16.2866667,36.585 16.7441667,36.72 17.0791667,36.99 C17.4141667,37.26 17.5816667,37.655 17.5816667,38.175 L17.5816667,38.205 C17.5816667,38.655 17.4216667,39.0325 17.1016667,39.3375 C16.7816667,39.6425 16.3316667,39.795 15.7516667,39.795 Z M25.5033333,45.18 C26.1333333,45.18 26.7133333,45.07 27.2433333,44.85 C27.7733333,44.63 28.2333333,44.33 28.6233333,43.95 C29.0133333,43.57 29.3183333,43.1275 29.5383333,42.6225 C29.7583333,42.1175 29.8683333,41.575 29.8683333,40.995 L29.8683333,40.965 C29.8683333,40.385 29.7583333,39.8425 29.5383333,39.3375 C29.3183333,38.8325 29.0158333,38.3925 28.6308333,38.0175 C28.2458333,37.6425 27.7883333,37.3475 27.2583333,37.1325 C26.7283333,36.9175 26.1533333,36.81 25.5333333,36.81 C24.9033333,36.81 24.3233333,36.92 23.7933333,37.14 C23.2633333,37.36 22.8033333,37.66 22.4133333,38.04 C22.0233333,38.42 21.7183333,38.8625 21.4983333,39.3675 C21.2783333,39.8725 21.1683333,40.415 21.1683333,40.995 L21.1683333,41.025 C21.1683333,41.605 21.2783333,42.1475 21.4983333,42.6525 C21.7183333,43.1575 22.0208333,43.5975 22.4058333,43.9725 C22.7908333,44.3475 23.2483333,44.6425 23.7783333,44.8575 C24.3083333,45.0725 24.8833333,45.18 25.5033333,45.18 Z M25.5333333,43.215 C25.2133333,43.215 24.9258333,43.155 24.6708333,43.035 C24.4158333,42.915 24.1933333,42.7525 24.0033333,42.5475 C23.8133333,42.3425 23.6683333,42.1075 23.5683333,41.8425 C23.4683333,41.5775 23.4183333,41.295 23.4183333,40.995 L23.4183333,40.965 C23.4183333,40.665 23.4658333,40.3825 23.5608333,40.1175 C23.6558333,39.8525 23.7933333,39.62 23.9733333,39.42 C24.1533333,39.22 24.3708333,39.0625 24.6258333,38.9475 C24.8808333,38.8325 25.1733333,38.775 25.5033333,38.775 C25.8133333,38.775 26.0983333,38.835 26.3583333,38.955 C26.6183333,39.075 26.8433333,39.2375 27.0333333,39.4425 C27.2233333,39.6475 27.3683333,39.8825 27.4683333,40.1475 C27.5683333,40.4125 27.6183333,40.695 27.6183333,40.995 L27.6183333,41.025 C27.6183333,41.325 27.5708333,41.6075 27.4758333,41.8725 C27.3808333,42.1375 27.2433333,42.37 27.0633333,42.57 C26.8833333,42.77 26.6658333,42.9275 26.4108333,43.0425 C26.1558333,43.1575 25.8633333,43.215 25.5333333,43.215 Z M33.965,47.4 L33.965,43.95 C34.235,44.27 34.5675,44.55 34.9625,44.79 C35.3575,45.03 35.86,45.15 36.47,45.15 C36.95,45.15 37.41,45.06 37.85,44.88 C38.29,44.7 38.6775,44.4325 39.0125,44.0775 C39.3475,43.7225 39.6175,43.2875 39.8225,42.7725 C40.0275,42.2575 40.13,41.665 40.13,40.995 L40.13,40.965 C40.13,40.295 40.0275,39.7025 39.8225,39.1875 C39.6175,38.6725 39.345,38.2375 39.005,37.8825 C38.665,37.5275 38.275,37.26 37.835,37.08 C37.395,36.9 36.94,36.81 36.47,36.81 C35.87,36.81 35.3725,36.9325 34.9775,37.1775 C34.5825,37.4225 34.245,37.735 33.965,38.115 L33.965,36.96 L31.685,36.96 L31.685,47.4 L33.965,47.4 Z M35.885,43.215 C35.615,43.215 35.3625,43.1625 35.1275,43.0575 C34.8925,42.9525 34.6875,42.8025 34.5125,42.6075 C34.3375,42.4125 34.1975,42.1775 34.0925,41.9025 C33.9875,41.6275 33.935,41.325 33.935,40.995 L33.935,40.965 C33.935,40.635 33.9875,40.3325 34.0925,40.0575 C34.1975,39.7825 34.3375,39.5475 34.5125,39.3525 C34.6875,39.1575 34.8925,39.0075 35.1275,38.9025 C35.3625,38.7975 35.615,38.745 35.885,38.745 C36.155,38.745 36.4075,38.7975 36.6425,38.9025 C36.8775,39.0075 37.085,39.1575 37.265,39.3525 C37.445,39.5475 37.5875,39.7825 37.6925,40.0575 C37.7975,40.3325 37.85,40.635 37.85,40.965 L37.85,40.995 C37.85,41.335 37.7975,41.64 37.6925,41.91 C37.5875,42.18 37.445,42.4125 37.265,42.6075 C37.085,42.8025 36.8775,42.9525 36.6425,43.0575 C36.4075,43.1625 36.155,43.215 35.885,43.215 Z M44.6466667,45.15 C44.9366667,45.15 45.1966667,45.115 45.4266667,45.045 C45.6566667,44.975 45.8666667,44.88 46.0566667,44.76 C46.2466667,44.64 46.4191667,44.5025 46.5741667,44.3475 C46.7291667,44.1925 46.8716667,44.03 47.0016667,43.86 L47.0016667,45 L49.2816667,45 L49.2816667,36.96 L47.0016667,36.96 L47.0016667,41.445 C47.0016667,41.985 46.8741667,42.3925 46.6191667,42.6675 C46.3641667,42.9425 46.0166667,43.08 45.5766667,43.08 C45.1366667,43.08 44.7966667,42.9425 44.5566667,42.6675 C44.3166667,42.3925 44.1966667,41.985 44.1966667,41.445 L44.1966667,36.96 L41.9166667,36.96 L41.9166667,42.165 C41.9166667,43.095 42.1541667,43.825 42.6291667,44.355 C43.1041667,44.885 43.7766667,45.15 44.6466667,45.15 Z M53.8733333,45 L53.8733333,34.05 L51.5933333,34.05 L51.5933333,45 L53.8733333,45 Z M58.465,45.15 C59.025,45.15 59.5,45.0575 59.89,44.8725 C60.28,44.6875 60.615,44.44 60.895,44.13 L60.895,45 L63.1,45 L63.1,40.335 C63.1,39.245 62.815,38.395 62.245,37.785 C61.675,37.175 60.765,36.87 59.515,36.87 C58.835,36.87 58.255,36.93 57.775,37.05 C57.295,37.17 56.835,37.325 56.395,37.515 L56.965,39.255 C57.335,39.115 57.6875,39.0075 58.0225,38.9325 C58.3575,38.8575 58.745,38.82 59.185,38.82 C59.755,38.82 60.185,38.945 60.475,39.195 C60.765,39.445 60.91,39.81 60.91,40.29 L60.91,40.425 C60.62,40.325 60.3225,40.245 60.0175,40.185 C59.7125,40.125 59.355,40.095 58.945,40.095 C58.465,40.095 58.0275,40.1475 57.6325,40.2525 C57.2375,40.3575 56.8975,40.515 56.6125,40.725 C56.3275,40.935 56.105,41.2 55.945,41.52 C55.785,41.84 55.705,42.22 55.705,42.66 L55.705,42.69 C55.705,43.09 55.7775,43.4425 55.9225,43.7475 C56.0675,44.0525 56.265,44.31 56.515,44.52 C56.765,44.73 57.0575,44.8875 57.3925,44.9925 C57.7275,45.0975 58.085,45.15 58.465,45.15 Z M59.155,43.575 C58.785,43.575 58.485,43.49 58.255,43.32 C58.025,43.15 57.91,42.91 57.91,42.6 L57.91,42.57 C57.91,42.21 58.05,41.935 58.33,41.745 C58.61,41.555 58.995,41.46 59.485,41.46 C59.765,41.46 60.0275,41.4875 60.2725,41.5425 C60.5175,41.5975 60.74,41.67 60.94,41.76 L60.94,42.165 C60.94,42.585 60.7775,42.925 60.4525,43.185 C60.1275,43.445 59.695,43.575 59.155,43.575 Z M67.5116667,45 L67.5116667,42.03 C67.5116667,41.06 67.7291667,40.345 68.1641667,39.885 C68.5991667,39.425 69.1966667,39.195 69.9566667,39.195 L70.0766667,39.195 L70.0766667,36.81 C69.3966667,36.78 68.8566667,36.93 68.4566667,37.26 C68.0566667,37.59 67.7416667,38.03 67.5116667,38.58 L67.5116667,36.96 L65.2316667,36.96 L65.2316667,45 L67.5116667,45 Z" id="Popular" fill="#FFFFFF" fill-rule="nonzero"></path>
    </g>
</svg>